<svg xmlns="http://www.w3.org/2000/svg" version="1.1" xmlns:xlink="http://www.w3.org/1999/xlink" xmlns:svgjs="http://svgjs.com/svgjs" width="512" height="512" x="0" y="0" viewBox="0 0 512 512" style="enable-background:new 0 0 512 512" xml:space="preserve" class=""><g><g xmlns="http://www.w3.org/2000/svg"><path d="m497 241h-20.178c9.273-18.431 14.178-38.909 14.178-60.142 0-35.796-13.94-69.45-39.251-94.762-25.312-25.312-58.966-39.252-94.762-39.252s-69.45 13.94-94.762 39.252l-6.225 6.225-6.225-6.224c-25.312-25.312-58.965-39.252-94.762-39.252s-69.45 13.94-94.762 39.251c-25.311 25.312-39.251 58.966-39.251 94.762 0 21.232 4.905 41.711 14.178 60.142h-20.178c-8.284 0-15 6.716-15 15s6.716 15 15 15h40.846c1.429 1.568 2.896 3.11 4.406 4.62l185.142 185.142c2.929 2.929 6.768 4.394 10.606 4.394s7.678-1.464 10.606-4.394l185.142-185.142c1.51-1.51 2.977-3.052 4.406-4.62h40.846c8.284 0 15-6.716 15-15s-6.716-15-15-15zm-446-60.142c0-27.783 10.819-53.903 30.465-73.549 19.645-19.646 45.765-30.465 73.548-30.465s53.903 10.819 73.549 30.465l16.831 16.831c5.857 5.858 15.355 5.858 21.213 0l16.831-16.831c19.646-19.646 45.766-30.465 73.549-30.465s53.903 10.819 73.549 30.465 30.465 45.766 30.465 73.549c0 21.858-6.701 42.685-19.124 60.142h-78.621l-33.583-53.026c-2.814-4.443-7.744-7.081-13.006-6.97-5.257.117-10.069 2.978-12.683 7.542l-49.175 85.861-63.428-125.186c-2.642-5.215-8.094-8.428-13.915-8.211-5.842.208-11.031 3.792-13.295 9.182l-38.139 90.808h-55.907c-12.423-17.457-19.124-38.283-19.124-60.142zm205 248.084-157.942-157.942h37.942c6.04 0 11.491-3.623 13.83-9.191l29.444-70.105 61.346 121.076c2.492 4.92 7.483 8.075 12.997 8.216.129.003.257.005.385.005 5.366 0 10.338-2.872 13.015-7.545l50.629-88.4 24.682 38.972c2.75 4.34 7.532 6.972 12.672 6.972h58.942z" fill="#ffffff" data-original="#000000"></path></g></g></svg>