<svg xmlns="http://www.w3.org/2000/svg" version="1.1" xmlns:xlink="http://www.w3.org/1999/xlink" xmlns:svgjs="http://svgjs.com/svgjs" width="512" height="512" x="0" y="0" viewBox="0 0 64 64" style="enable-background:new 0 0 512 512" xml:space="preserve"><g><g xmlns="http://www.w3.org/2000/svg" id="Layer_17"><path d="m57.83 48.183-6.295-6.283c.23-.236.453-.469.661-.69.24-.254.472-.499.695-.726.548-.442 3.598-3.029 3.706-5.817.043-1.114-.394-2.13-1.265-2.938-.622-.577-1.338-.906-2.114-.992.009-.091.024-.182.027-.274.039-1.104-.395-2.108-1.254-2.905-.78-.724-1.738-1.068-2.783-.992-.229.016-.455.058-.68.111.13-.409.219-.824.237-1.239.043-.985-.287-1.881-.956-2.588-1.243-1.315-2.515-1.47-3.362-1.365-.495.06-.967.223-1.414.446.005-.255-.007-.507-.053-.754-.172-.916-.704-1.657-1.541-2.145-3.08-1.792-6.16 1.316-7.616 3.607-.561-.081-1.112-.109-1.65-.085l-2.823-2.82c1.965-4.734.878-10.258-2.809-13.954-4.111-4.109-10.473-4.966-15.468-2.084-.27.155-.451.427-.492.735-.041.309.065.619.284.839l6.958 6.953-3.682 3.68-6.663-6.659c-.234-.234-.567-.339-.892-.275-.325.06-.598.278-.731.581-2.095 4.774-1.002 10.473 2.716 14.178 3.693 3.691 9.222 4.784 13.963 2.819l1.752 1.751c-1.345 3.118-.764 6.334-.431 7.625l-3.139 3.526-.752-.8c-.189-.201-.453-.315-.729-.315 0 0 0 0-.001 0-.276 0-.54.114-.729.316l-4.659 4.973c-.358.383-.36.978-.004 1.362l15.43 16.694c.185.2.444.316.717.321h.017c.267 0 .522-.106.71-.296l4.921-4.968c.379-.383.387-.996.018-1.389l-.413-.439c.713-1.055 2.407-3.102 4.556-2.59 1.955.459 3.988-.507 5.802-2.726l5.409 5.403c.915.92 2.119 1.381 3.323 1.381 1.188 0 2.376-.449 3.283-1.35l.244-.244c.876-.875 1.355-2.046 1.348-3.297-.005-1.248-.495-2.42-1.377-3.302zm-3.858-14.986c.448.415.647.856.626 1.391-.063 1.677-2.187 3.723-3 4.37-.031.024-.061.052-.088.079-.246.248-.502.519-.767.8-2.359 2.495-3.706 3.505-4.98 2.477-.941-.757-.673-1.731-.406-2.278 1.352-.704 2.573-1.994 3.538-3.026.237-.254.467-.5.688-.727.389-.319 2.046-1.745 2.993-3.548.534-.062.988.083 1.396.462zm-4.618-4.636c.49-.029.898.113 1.277.465.438.405.633.84.615 1.366-.057 1.669-2.161 3.723-2.966 4.373-.03.024-.06.051-.087.079-.243.248-.497.52-.759.801-2.33 2.495-3.659 3.508-4.908 2.508-1.167-.934-.445-2.215-.292-2.456.045-.068.061-.144.087-.218 1.574-.024 2.407-.751 2.734-1.135.755-.884.909-2.109.523-3.29.239-.237.536-.548.855-.916.851-.753 1.945-1.508 2.921-1.577zm-4.663-5.09c.574-.071 1.122.177 1.667.753.3.317.43.675.411 1.124-.047 1.083-.921 2.383-1.763 3.376-.195.177-.376.349-.536.509-.031-.033-.055-.069-.087-.102-1.054-1.058-2.073-1.972-3.066-2.772.131-.192.276-.415.425-.665.768-.986 1.871-2.095 2.949-2.223zm-4.256-2.709c.337.196.516.438.581.782.153.813-.347 2.012-.933 3.018-.156.205-.297.399-.416.574-1.298-.884-2.548-1.538-3.76-1.967.91-1.214 2.856-3.384 4.528-2.407zm-16.973 3.884c-.301-.302-.759-.38-1.141-.193-4.113 1.982-9.07 1.124-12.336-2.141-2.777-2.768-3.82-6.847-2.803-10.537l6.253 6.248c.391.391 1.023.391 1.414 0l5.097-5.094c.188-.188.293-.441.293-.707s-.105-.52-.293-.707l-6.683-6.678c3.996-1.682 8.712-.793 11.863 2.355 3.258 3.266 4.115 8.22 2.132 12.327-.185.383-.107.842.194 1.142l2.355 2.353c-1.313.477-2.542 1.309-3.677 2.497-.306.32-.569.652-.813.988zm6.571 34.908-14.089-15.243 3.293-3.516 14.301 15.219zm10.226-9.183c-3.07-.721-5.317 1.576-6.409 3.054l-11.758-12.513 3.625-4.072c.239-.269.315-.648.199-.989-.018-.053-1.77-5.369 1.66-8.958 1.833-1.918 3.851-2.653 6.175-2.252 2.674.463 5.775 2.449 9.214 5.902.912.914 1.005 1.99.568 2.502-.747.877-3.241.598-6.954-2.083-1.297-.938-2.313-.774-2.936-.473-2.277 1.101-2.606 5.853-2.649 6.793-.025.552.401 1.02.953 1.045.536 0 1.019-.401 1.045-.953.005-.115.018-.234.026-.351l11.161 11.149c-.935 1.19-2.383 2.557-3.92 2.199zm16.187 2.998-.241.241c-1.041 1.032-2.734 1.021-3.778-.028l-19.03-19.009c.279-1.144.672-2.068 1.118-2.283.241-.11.621.096.895.293 1.955 1.413 3.552 2.192 4.851 2.578-.528 1.185-.774 3.122 1.017 4.553.631.504 1.257.746 1.871.813-.152 1.132.152 2.37 1.361 3.343.762.614 1.519.865 2.255.865 1.177 0 2.297-.649 3.304-1.474l6.348 6.335c.507.507.789 1.182.793 1.898.003.714-.268 1.379-.764 1.875z" fill="#ffffff" data-original="#000000"></path></g></g></svg>