<svg xmlns="http://www.w3.org/2000/svg" version="1.1" xmlns:xlink="http://www.w3.org/1999/xlink" xmlns:svgjs="http://svgjs.com/svgjs" width="512" height="512" x="0" y="0" viewBox="0 0 48 48" style="enable-background:new 0 0 512 512" xml:space="preserve"><g><path xmlns="http://www.w3.org/2000/svg" d="m38.447 41.515h-37.447a1 1 0 0 1 -1-1v-21.434a1 1 0 0 1 1-1h37.447a1 1 0 0 1 1 1v21.434a1 1 0 0 1 -1 1zm-36.447-2h35.447v-19.434h-35.447z" fill="#ffffff" data-original="#000000"></path><path xmlns="http://www.w3.org/2000/svg" d="m32 38.485h-24.547a1 1 0 0 1 -1-1 2.01 2.01 0 0 0 -2.008-2.007 1 1 0 0 1 -1-1v-9.359a1 1 0 0 1 1-1 2.011 2.011 0 0 0 2.008-2.008 1 1 0 0 1 1-1h24.547a1 1 0 0 1 1 1 2.01 2.01 0 0 0 2 2.008 1 1 0 0 1 1 1v9.359a1 1 0 0 1 -1 1 2.009 2.009 0 0 0 -2.007 2.007 1 1 0 0 1 -.993 1zm-23.669-2h22.8a4.025 4.025 0 0 1 2.869-2.885v-7.608a4.023 4.023 0 0 1 -2.881-2.881h-22.793a4.021 4.021 0 0 1 -2.881 2.881v7.608a4.023 4.023 0 0 1 2.881 2.885z" fill="#ffffff" data-original="#000000"></path><path xmlns="http://www.w3.org/2000/svg" d="m19.724 35.31a5.512 5.512 0 1 1 5.511-5.51 5.519 5.519 0 0 1 -5.511 5.51zm0-9.023a3.512 3.512 0 1 0 3.511 3.513 3.515 3.515 0 0 0 -3.511-3.513z" fill="#ffffff" data-original="#000000"></path><path xmlns="http://www.w3.org/2000/svg" d="m40.819 35.788a1 1 0 0 1 -.1-1.995l1.154-.121-2.03-19.327-32.193 3.38a1 1 0 0 1 -.209-1.99l33.184-3.484a1 1 0 0 1 1.1.89l2.239 21.317a1 1 0 0 1 -.89 1.1l-2.149.226c-.036.002-.071.004-.106.004z" fill="#ffffff" data-original="#000000"></path><path xmlns="http://www.w3.org/2000/svg" d="m45.367 29.848a1 1 0 0 1 -.188-1.982l.651-.125-3.662-19.086-31.341 6.012a1 1 0 1 1 -.377-1.967l32.324-6.2a1 1 0 0 1 1.17.793l4.038 21.051a1 1 0 0 1 -.794 1.17l-1.632.313a1.024 1.024 0 0 1 -.189.021z" fill="#ffffff" data-original="#000000"></path></g></svg>